<svg id="visual" viewBox="0 0 1980 1080" width="1980" height="1080" xmlns="http://www.w3.org/2000/svg" xmlns:xlink="http://www.w3.org/1999/xlink" version="1.1"><path d="M0 141L180 141L180 206L360 206L360 314L540 314L540 379L720 379L720 368L900 368L900 195L1080 195L1080 141L1260 141L1260 444L1440 444L1440 239L1620 239L1620 347L1800 347L1800 206L1980 206L1980 163L1980 0L1980 0L1800 0L1800 0L1620 0L1620 0L1440 0L1440 0L1260 0L1260 0L1080 0L1080 0L900 0L900 0L720 0L720 0L540 0L540 0L360 0L360 0L180 0L180 0L0 0Z" fill="#70ac73"></path><path d="M0 379L180 379L180 465L360 465L360 476L540 476L540 584L720 584L720 530L900 530L900 368L1080 368L1080 282L1260 282L1260 617L1440 617L1440 368L1620 368L1620 573L1800 573L1800 314L1980 314L1980 476L1980 161L1980 204L1800 204L1800 345L1620 345L1620 237L1440 237L1440 442L1260 442L1260 139L1080 139L1080 193L900 193L900 366L720 366L720 377L540 377L540 312L360 312L360 204L180 204L180 139L0 139Z" fill="#579459"></path><path d="M0 498L180 498L180 660L360 660L360 617L540 617L540 757L720 757L720 627L900 627L900 465L1080 465L1080 487L1260 487L1260 692L1440 692L1440 573L1620 573L1620 649L1800 649L1800 498L1980 498L1980 552L1980 474L1980 312L1800 312L1800 571L1620 571L1620 366L1440 366L1440 615L1260 615L1260 280L1080 280L1080 366L900 366L900 528L720 528L720 582L540 582L540 474L360 474L360 463L180 463L180 377L0 377Z" fill="#3f7c3f"></path><path d="M0 908L180 908L180 973L360 973L360 919L540 919L540 1005L720 1005L720 962L900 962L900 897L1080 897L1080 897L1260 897L1260 973L1440 973L1440 919L1620 919L1620 1016L1800 1016L1800 897L1980 897L1980 962L1980 550L1980 496L1800 496L1800 647L1620 647L1620 571L1440 571L1440 690L1260 690L1260 485L1080 485L1080 463L900 463L900 625L720 625L720 755L540 755L540 615L360 615L360 658L180 658L180 496L0 496Z" fill="#266526"></path><path d="M0 1081L180 1081L180 1081L360 1081L360 1081L540 1081L540 1081L720 1081L720 1081L900 1081L900 1081L1080 1081L1080 1081L1260 1081L1260 1081L1440 1081L1440 1081L1620 1081L1620 1081L1800 1081L1800 1081L1980 1081L1980 1081L1980 960L1980 895L1800 895L1800 1014L1620 1014L1620 917L1440 917L1440 971L1260 971L1260 895L1080 895L1080 895L900 895L900 960L720 960L720 1003L540 1003L540 917L360 917L360 971L180 971L180 906L0 906Z" fill="#074f0b"></path></svg>