<svg id="visual" viewBox="0 0 1980 1080" width="1980" height="1080" xmlns="http://www.w3.org/2000/svg" xmlns:xlink="http://www.w3.org/1999/xlink" version="1.1"><rect x="0" y="0" width="1980" height="1080" fill="#70ac73"></rect><path d="M0 611L47.2 619.2C94.3 627.3 188.7 643.7 283 651.5C377.3 659.3 471.7 658.7 566 649.8C660.3 641 754.7 624 848.8 620.2C943 616.3 1037 625.7 1131.2 636.5C1225.3 647.3 1319.7 659.7 1414 664.2C1508.3 668.7 1602.7 665.3 1697 664.8C1791.3 664.3 1885.7 666.7 1932.8 667.8L1980 669L1980 1081L1932.8 1081C1885.7 1081 1791.3 1081 1697 1081C1602.7 1081 1508.3 1081 1414 1081C1319.7 1081 1225.3 1081 1131.2 1081C1037 1081 943 1081 848.8 1081C754.7 1081 660.3 1081 566 1081C471.7 1081 377.3 1081 283 1081C188.7 1081 94.3 1081 47.2 1081L0 1081Z" fill="#074f0b"></path><path d="M0 671L47.2 670.7C94.3 670.3 188.7 669.7 283 687C377.3 704.3 471.7 739.7 566 754.7C660.3 769.7 754.7 764.3 848.8 756.8C943 749.3 1037 739.7 1131.2 737C1225.3 734.3 1319.7 738.7 1414 729.3C1508.3 720 1602.7 697 1697 696.7C1791.3 696.3 1885.7 718.7 1932.8 729.8L1980 741L1980 1081L1932.8 1081C1885.7 1081 1791.3 1081 1697 1081C1602.7 1081 1508.3 1081 1414 1081C1319.7 1081 1225.3 1081 1131.2 1081C1037 1081 943 1081 848.8 1081C754.7 1081 660.3 1081 566 1081C471.7 1081 377.3 1081 283 1081C188.7 1081 94.3 1081 47.2 1081L0 1081Z" fill="#1f7515"></path><path d="M0 880L47.2 872.3C94.3 864.7 188.7 849.3 283 845.2C377.3 841 471.7 848 566 842.7C660.3 837.3 754.7 819.7 848.8 822.8C943 826 1037 850 1131.2 849C1225.3 848 1319.7 822 1414 821.2C1508.3 820.3 1602.7 844.7 1697 849.8C1791.3 855 1885.7 841 1932.8 834L1980 827L1980 1081L1932.8 1081C1885.7 1081 1791.3 1081 1697 1081C1602.7 1081 1508.3 1081 1414 1081C1319.7 1081 1225.3 1081 1131.2 1081C1037 1081 943 1081 848.8 1081C754.7 1081 660.3 1081 566 1081C471.7 1081 377.3 1081 283 1081C188.7 1081 94.3 1081 47.2 1081L0 1081Z" fill="#3a9d1d"></path><path d="M0 970L47.2 964.3C94.3 958.7 188.7 947.3 283 949.2C377.3 951 471.7 966 566 966.3C660.3 966.7 754.7 952.3 848.8 942.5C943 932.7 1037 927.3 1131.2 925C1225.3 922.7 1319.7 923.3 1414 935.2C1508.3 947 1602.7 970 1697 968.5C1791.3 967 1885.7 941 1932.8 928L1980 915L1980 1081L1932.8 1081C1885.7 1081 1791.3 1081 1697 1081C1602.7 1081 1508.3 1081 1414 1081C1319.7 1081 1225.3 1081 1131.2 1081C1037 1081 943 1081 848.8 1081C754.7 1081 660.3 1081 566 1081C471.7 1081 377.3 1081 283 1081C188.7 1081 94.3 1081 47.2 1081L0 1081Z" fill="#57c724"></path></svg>