<svg id="visual" viewBox="0 0 960 540" width="960" height="540" xmlns="http://www.w3.org/2000/svg" xmlns:xlink="http://www.w3.org/1999/xlink" version="1.1"><rect x="0" y="0" width="960" height="540" fill="#70ac73"></rect><path d="M0 305L22.8 309C45.7 313 91.3 321 137 324.8C182.7 328.7 228.3 328.3 274 324C319.7 319.7 365.3 311.3 411.2 309.5C457 307.7 503 312.3 548.8 317.7C594.7 323 640.3 329 686 331.2C731.7 333.3 777.3 331.7 823 331.5C868.7 331.3 914.3 332.7 937.2 333.3L960 334L960 541L937.2 541C914.3 541 868.7 541 823 541C777.3 541 731.7 541 686 541C640.3 541 594.7 541 548.8 541C503 541 457 541 411.2 541C365.3 541 319.7 541 274 541C228.3 541 182.7 541 137 541C91.3 541 45.7 541 22.8 541L0 541Z" fill="#074f0b"></path><path d="M0 335L22.8 334.8C45.7 334.7 91.3 334.3 137 343C182.7 351.7 228.3 369.3 274 376.8C319.7 384.3 365.3 381.7 411.2 377.8C457 374 503 369 548.8 367.7C594.7 366.3 640.3 368.7 686 364C731.7 359.3 777.3 347.7 823 347.5C868.7 347.3 914.3 358.7 937.2 364.3L960 370L960 541L937.2 541C914.3 541 868.7 541 823 541C777.3 541 731.7 541 686 541C640.3 541 594.7 541 548.8 541C503 541 457 541 411.2 541C365.3 541 319.7 541 274 541C228.3 541 182.7 541 137 541C91.3 541 45.7 541 22.8 541L0 541Z" fill="#1f7515"></path><path d="M0 440L22.8 436C45.7 432 91.3 424 137 421.8C182.7 419.7 228.3 423.3 274 420.8C319.7 418.3 365.3 409.7 411.2 411.2C457 412.7 503 424.3 548.8 423.7C594.7 423 640.3 410 686 409.7C731.7 409.3 777.3 421.7 823 424.3C868.7 427 914.3 420 937.2 416.5L960 413L960 541L937.2 541C914.3 541 868.7 541 823 541C777.3 541 731.7 541 686 541C640.3 541 594.7 541 548.8 541C503 541 457 541 411.2 541C365.3 541 319.7 541 274 541C228.3 541 182.7 541 137 541C91.3 541 45.7 541 22.8 541L0 541Z" fill="#3a9d1d"></path><path d="M0 484L22.8 481.2C45.7 478.3 91.3 472.7 137 473.7C182.7 474.7 228.3 482.3 274 482.5C319.7 482.7 365.3 475.3 411.2 470.3C457 465.3 503 462.7 548.8 461.7C594.7 460.7 640.3 461.3 686 467.3C731.7 473.3 777.3 484.7 823 483.8C868.7 483 914.3 470 937.2 463.5L960 457L960 541L937.2 541C914.3 541 868.7 541 823 541C777.3 541 731.7 541 686 541C640.3 541 594.7 541 548.8 541C503 541 457 541 411.2 541C365.3 541 319.7 541 274 541C228.3 541 182.7 541 137 541C91.3 541 45.7 541 22.8 541L0 541Z" fill="#57c724"></path></svg>